<svg width="1922" height="1078" viewBox="0 0 1922 1078" fill="none" xmlns="http://www.w3.org/2000/svg">
<path d="M1921 0H1V1063H1.5C53.6666 1077.83 200.1 1094.5 368.5 1042.5C579 977.5 773.406 998.892 1018.5 1042.5C1311.59 1094.65 1394.2 989.599 1524.5 914C1618 859.753 1741.5 749 1921 821.663V0Z" fill="#321C67"/>
<path opacity="0.2" fill-rule="evenodd" clip-rule="evenodd" d="M471.223 103.016C689.025 103.016 865.589 290.414 865.589 521.581C865.589 752.748 689.025 940.146 471.223 940.146C253.421 940.146 76.8577 752.748 76.8577 521.581C76.8577 290.414 253.421 103.016 471.223 103.016Z" stroke="white"/>
<path opacity="0.2" fill-rule="evenodd" clip-rule="evenodd" d="M557.918 343.053C722.635 343.053 856.166 484.777 856.166 659.602C856.166 834.427 722.635 976.151 557.918 976.151C393.2 976.151 259.67 834.427 259.67 659.602C259.67 484.777 393.2 343.053 557.918 343.053Z" stroke="white"/>
<path opacity="0.102" fill-rule="evenodd" clip-rule="evenodd" d="M277.104 163.025C429.331 163.025 552.736 294.003 552.736 455.571C552.736 617.139 429.331 748.116 277.104 748.116C124.877 748.116 1.47191 617.139 1.47191 455.571C1.47191 294.003 124.877 163.025 277.104 163.025Z" stroke="white"/>
<path opacity="0.102" fill-rule="evenodd" clip-rule="evenodd" d="M698.325 205.032C850.552 205.032 973.957 336.009 973.957 497.577C973.957 659.145 850.552 790.122 698.325 790.122C546.098 790.122 422.693 659.145 422.693 497.577C422.693 336.009 546.098 205.032 698.325 205.032Z" stroke="white"/>
<path opacity="0.2" fill-rule="evenodd" clip-rule="evenodd" d="M1418.27 103.016C1636.07 103.016 1812.63 290.414 1812.63 521.581C1812.63 752.748 1636.07 940.146 1418.27 940.146C1200.46 940.146 1023.9 752.748 1023.9 521.581C1023.9 290.414 1200.46 103.016 1418.27 103.016Z" stroke="white"/>
<path opacity="0.2" fill-rule="evenodd" clip-rule="evenodd" d="M1504.96 343.053C1669.68 343.053 1803.21 484.777 1803.21 659.602C1803.21 834.427 1669.68 976.151 1504.96 976.151C1340.24 976.151 1206.71 834.427 1206.71 659.602C1206.71 484.777 1340.24 343.053 1504.96 343.053Z" stroke="white"/>
<path opacity="0.102" fill-rule="evenodd" clip-rule="evenodd" d="M1224.15 163.025C1376.37 163.025 1499.78 294.003 1499.78 455.571C1499.78 617.139 1376.37 748.116 1224.15 748.116C1071.92 748.116 948.514 617.139 948.514 455.571C948.514 294.003 1071.92 163.025 1224.15 163.025Z" stroke="white"/>
<path opacity="0.102" fill-rule="evenodd" clip-rule="evenodd" d="M1645.37 205.032C1797.6 205.032 1921 336.009 1921 497.577C1921 659.145 1797.6 790.122 1645.37 790.122C1493.14 790.122 1369.74 659.145 1369.74 497.577C1369.74 336.009 1493.14 205.032 1645.37 205.032Z" stroke="white"/>
</svg>
