<svg width="643" height="727" viewBox="0 0 643 727" fill="none" xmlns="http://www.w3.org/2000/svg">
<path fill-rule="evenodd" clip-rule="evenodd" d="M333.5 15C333.5 6.71573 326.784 0 318.5 0C310.216 0 303.5 6.71573 303.5 15V108C303.5 116.284 310.216 123 318.5 123C326.784 123 333.5 116.284 333.5 108V15ZM321.5 146.5C271.914 146.5 215.053 172.189 177.537 214.412C139.357 257.381 120.599 318.358 150.23 386.949C150.526 387.635 150.874 388.298 151.269 388.932C170.602 419.961 187.349 461.902 200.323 498.678C206.373 515.826 211.52 531.606 215.694 544.404L215.695 544.407L215.696 544.409L215.696 544.411L216.502 546.88C218.644 553.444 220.542 559.235 222.138 563.85C223.636 568.179 225.168 572.378 226.583 575.208C230.507 583.055 237.143 587.684 243.97 590.371C250.502 592.943 257.992 594.071 265.446 594.644C275.673 595.428 288.536 595.289 302.71 595.134C308.769 595.068 315.066 595 321.5 595C327.934 595 334.231 595.068 340.289 595.134C354.463 595.289 367.327 595.428 377.554 594.643C385.008 594.071 392.497 592.943 399.03 590.371C405.856 587.684 412.493 583.055 416.416 575.208C417.832 572.378 419.364 568.179 420.862 563.85C422.458 559.235 424.356 553.444 426.498 546.88L427.304 544.409L427.305 544.406L427.306 544.403C431.48 531.605 436.627 515.826 442.677 498.678C455.651 461.902 472.398 419.961 491.731 388.932C492.126 388.298 492.474 387.635 492.77 386.949C522.476 318.185 502.635 257.187 464.089 214.342C426.227 172.259 369.425 146.5 321.5 146.5ZM199.963 234.338C168.579 269.659 153.579 318.068 177.343 374.055C198.238 407.899 215.652 451.956 228.614 488.697C234.788 506.196 240.036 522.286 244.202 535.062L244.204 535.067L245.022 537.573C247.18 544.189 248.995 549.722 250.49 554.043C251.987 558.372 252.904 560.707 253.339 561.632C253.537 561.786 254.004 562.081 254.96 562.457C257.357 563.401 261.351 564.241 267.742 564.731C276.61 565.412 287.346 565.294 300.661 565.146H300.661H300.662H300.662H300.663H300.663H300.664H300.664H300.665H300.665H300.666H300.667H300.667H300.671C307.005 565.076 313.922 565 321.5 565C329.078 565 335.995 565.076 342.329 565.146H342.333H342.333H342.334H342.334H342.335H342.335H342.336C355.652 565.294 366.389 565.412 375.258 564.731C381.649 564.241 385.643 563.401 388.04 562.457C388.996 562.081 389.463 561.786 389.661 561.632C390.095 560.707 391.012 558.372 392.51 554.043C394.005 549.722 395.82 544.189 397.978 537.573L398.796 535.067L398.799 535.058L398.801 535.052L398.801 535.05C402.967 522.276 408.214 506.191 414.386 488.697C427.348 451.956 444.762 407.9 465.656 374.055C489.338 318.239 473.675 269.852 441.786 234.407C409.023 197.991 360.075 176.5 321.5 176.5C281.086 176.5 232.197 198.061 199.963 234.338ZM253.217 561.515C253.222 561.513 253.255 561.54 253.3 561.6C253.235 561.546 253.212 561.516 253.217 561.515ZM389.7 561.6C389.766 561.546 389.788 561.516 389.783 561.514C389.781 561.514 389.775 561.518 389.766 561.526C389.763 561.528 389.759 561.531 389.756 561.535C389.75 561.541 389.744 561.548 389.737 561.555C389.726 561.568 389.713 561.583 389.7 561.6ZM259.5 606C251.216 606 244.5 612.716 244.5 621C244.5 629.284 251.216 636 259.5 636H378C386.284 636 393 629.284 393 621C393 612.716 386.284 606 378 606H259.5ZM256 665C256 656.716 262.716 650 271 650H366C374.284 650 381 656.716 381 665C381 673.284 374.284 680 366 680H271C262.716 680 256 673.284 256 665ZM270.303 698.672C268.548 695.59 270.943 692 274.489 692H363.511C367.057 692 369.452 695.59 367.697 698.672C358.062 715.591 339.863 727 319 727C298.137 727 279.938 715.591 270.303 698.672ZM200.054 305.539C205.829 237.977 259.378 207.189 304.876 211.379C313.125 212.139 319.197 219.442 318.437 227.692C317.677 235.941 310.374 242.013 302.124 241.253C271.622 238.443 234.171 258.655 229.946 308.093C229.24 316.348 221.977 322.467 213.723 321.761C205.468 321.056 199.349 313.793 200.054 305.539ZM156.5 43.0096C163.674 38.8675 172.848 41.3256 176.99 48.5L223.49 129.04C227.633 136.215 225.174 145.389 218 149.531C210.826 153.673 201.652 151.215 197.51 144.04L151.01 63.5C146.867 56.3256 149.326 47.1518 156.5 43.0096ZM58.6036 152.713C51.8176 147.961 42.4644 149.61 37.7127 156.396C32.9611 163.182 34.6103 172.536 41.3964 177.287L117.577 230.63C124.364 235.382 133.717 233.732 138.468 226.946C143.22 220.16 141.571 210.807 134.785 206.055L58.6036 152.713ZM499.713 226.946C504.464 233.732 513.818 235.382 520.604 230.63L596.785 177.287C603.571 172.536 605.22 163.182 600.468 156.396C595.717 149.61 586.364 147.961 579.578 152.713L503.396 206.055C496.61 210.807 494.961 220.16 499.713 226.946ZM439.99 144.04C435.848 151.215 426.674 153.673 419.5 149.531C412.326 145.389 409.867 136.215 414.01 129.04L460.51 48.5C464.652 41.3256 473.826 38.8675 481 43.0096C488.174 47.1518 490.633 56.3256 486.49 63.5L439.99 144.04ZM32.4054 479.643C28.9043 472.135 32.1526 463.21 39.6607 459.709L123.947 420.405C131.455 416.904 140.38 420.153 143.881 427.661C147.382 435.169 144.134 444.094 136.626 447.595L52.3393 486.898C44.8312 490.399 35.9065 487.151 32.4054 479.643ZM501.661 447.595C494.153 444.094 490.904 435.169 494.405 427.661C497.906 420.153 506.831 416.904 514.339 420.405L598.626 459.709C606.134 463.21 609.382 472.135 605.881 479.643C602.38 487.151 593.455 490.399 585.947 486.898L501.661 447.595ZM642.589 315.693C643.311 323.945 637.206 331.221 628.953 331.943L536.307 340.048C528.055 340.77 520.779 334.666 520.057 326.413C519.335 318.16 525.44 310.885 533.693 310.163L626.339 302.057C634.592 301.335 641.867 307.44 642.589 315.693ZM108.953 310.163C117.206 310.885 123.311 318.16 122.589 326.413C121.867 334.666 114.592 340.77 106.339 340.048L13.6927 331.943C5.43991 331.221 -0.664953 323.945 0.0570691 315.693C0.779091 307.44 8.05458 301.335 16.3073 302.057L108.953 310.163Z" fill="white"/>
</svg>
